<svg width="38" height="40" viewBox="0 0 38 40" fill="none" xmlns="http://www.w3.org/2000/svg">
<path d="M16.3363 40C15.5078 40 14.8363 39.3284 14.8363 38.5V25.2383C14.8363 24.4099 14.1647 23.7383 13.3363 23.7383H1.5C0.671573 23.7383 0 23.0667 0 22.2383V17.7617C0 16.9333 0.671573 16.2617 1.5 16.2617H13.3363C14.1647 16.2617 14.8363 15.5901 14.8363 14.7617V1.5C14.8363 0.671572 15.5078 0 16.3363 0H21.7594C22.5879 0 23.2594 0.671573 23.2594 1.5V14.7617C23.2594 15.5901 23.931 16.2617 24.7594 16.2617H36.5C37.3284 16.2617 38 16.9333 38 17.7617V22.2383C38 23.0667 37.3284 23.7383 36.5 23.7383H24.7594C23.931 23.7383 23.2594 24.4099 23.2594 25.2383V38.5C23.2594 39.3284 22.5879 40 21.7594 40H16.3363Z" fill="#56885B"/>
</svg>
