<svg width="24" height="25" viewBox="0 0 24 25" fill="none" xmlns="http://www.w3.org/2000/svg">
<path d="M2.45406 0.831098C2.84458 0.440573 3.47775 0.440573 3.86827 0.831098L23.6673 20.6301C24.0578 21.0206 24.0578 21.6538 23.6673 22.0443L21.5459 24.1656C21.1554 24.5561 20.5223 24.5561 20.1317 24.1656L0.332739 4.36663C-0.0577854 3.97611 -0.057786 3.34294 0.332738 2.95242L2.45406 0.831098Z" fill="#56885B"/>
<path d="M23.6673 2.95242C24.0578 3.34294 24.0578 3.97611 23.6673 4.36663L3.86827 24.1656C3.47775 24.5561 2.84458 24.5561 2.45406 24.1656L0.332738 22.0443C-0.0577866 21.6538 -0.0577866 21.0206 0.332738 20.6301L20.1317 0.831098C20.5223 0.440574 21.1554 0.440573 21.5459 0.831098L23.6673 2.95242Z" fill="#56885B"/>
</svg>
