<svg width="36" height="40" viewBox="0 0 36 40" fill="none" xmlns="http://www.w3.org/2000/svg">
<path d="M22.4994 19.9973V37.506C22.5894 38.1726 22.3644 38.8836 21.847 39.3502C21.6388 39.5562 21.3916 39.7196 21.1195 39.8311C20.8473 39.9426 20.5556 40 20.2609 40C19.9663 40 19.6746 39.9426 19.4024 39.8311C19.1302 39.7196 18.883 39.5562 18.6749 39.3502L14.153 34.8842C13.9078 34.6472 13.7213 34.3574 13.6082 34.0375C13.495 33.7176 13.4582 33.3762 13.5006 33.04V19.9973H13.4331L0.474926 3.59951C0.109595 3.13631 -0.0552491 2.54912 0.0164127 1.96624C0.0880746 1.38337 0.390417 0.85221 0.857374 0.488823C1.28481 0.177754 1.75725 0 2.25218 0H33.7478C34.2427 0 34.7152 0.177754 35.1426 0.488823C35.6096 0.85221 35.9119 1.38337 35.9836 1.96624C36.0552 2.54912 35.8904 3.13631 35.5251 3.59951L22.5669 19.9973H22.4994Z" fill="#56885B"/>
</svg>
